<!DOCTYPE svg PUBLIC "-//W3C//DTD SVG 1.1//EN" "http://www.w3.org/Graphics/SVG/1.1/DTD/svg11.dtd">
<!-- Uploaded to: SVG Repo, www.svgrepo.com, Transformed by: SVG Repo Mixer Tools -->
<svg fill="#ffffff" width="152px" height="152px" viewBox="-3.2 -3.2 38.40 38.40" id="icon" xmlns="http://www.w3.org/2000/svg" stroke="#ffffff" transform="matrix(1, 0, 0, 1, 0, 0)" stroke-width="0.00032">
<g id="SVGRepo_bgCarrier" stroke-width="0"/>
<g id="SVGRepo_tracerCarrier" stroke-linecap="round" stroke-linejoin="round"/>
<g id="SVGRepo_iconCarrier"> <defs> <style> .cls-1 { fill: none; } </style> </defs> <path d="M26,30H6a2.0023,2.0023,0,0,1-2-2V4A2.0023,2.0023,0,0,1,6,2H26a2.0023,2.0023,0,0,1,2,2V28A2.0023,2.0023,0,0,1,26,30ZM6,4V28H26V4Z"/> <rect x="12" y="18" width="11" height="2" transform="translate(35 38) rotate(-180)"/> <rect x="16" y="23" width="7" height="2" transform="translate(39 48) rotate(-180)"/> <rect id="_Transparent_Rectangle_" data-name="&lt;Transparent Rectangle&gt;" class="cls-1" width="32" height="32"/> </g>
</svg>